<svg width="21" height="20" viewBox="0 0 21 20" fill="none" xmlns="http://www.w3.org/2000/svg">
<path d="M10.4477 7.34938C9.01922 7.34938 7.8535 8.51187 7.8535 9.93636C7.8535 11.3609 9.01922 12.5233 10.4477 12.5233C11.8761 12.5233 13.0418 11.3609 13.0418 9.93636C13.0418 8.51187 11.8761 7.34938 10.4477 7.34938ZM18.2282 9.93636C18.2282 8.86508 18.238 7.80351 18.1776 6.73417C18.1173 5.4921 17.8332 4.38977 16.9224 3.48151C16.0097 2.57131 14.9062 2.28991 13.6607 2.22975C12.5864 2.16958 11.5219 2.17929 10.4496 2.17929C9.37536 2.17929 8.31083 2.16958 7.23852 2.22975C5.99301 2.28991 4.88761 2.57326 3.97683 3.48151C3.0641 4.39171 2.78192 5.4921 2.72159 6.73417C2.66126 7.80545 2.67099 8.86702 2.67099 9.93636C2.67099 11.0057 2.66126 12.0692 2.72159 13.1386C2.78192 14.3806 3.06605 15.483 3.97683 16.3912C4.88956 17.3014 5.99301 17.5828 7.23852 17.643C8.31278 17.7031 9.3773 17.6934 10.4496 17.6934C11.5239 17.6934 12.5884 17.7031 13.6607 17.643C14.9062 17.5828 16.0116 17.2995 16.9224 16.3912C17.8351 15.481 18.1173 14.3806 18.1776 13.1386C18.2399 12.0692 18.2282 11.0076 18.2282 9.93636ZM10.4477 13.9168C8.23883 13.9168 6.45618 12.1391 6.45618 9.93636C6.45618 7.73364 8.23883 5.95594 10.4477 5.95594C12.6565 5.95594 14.4392 7.73364 14.4392 9.93636C14.4392 12.1391 12.6565 13.9168 10.4477 13.9168ZM14.6026 6.72252C14.0869 6.72252 13.6704 6.30721 13.6704 5.79292C13.6704 5.27862 14.0869 4.86331 14.6026 4.86331C15.1183 4.86331 15.5348 5.27862 15.5348 5.79292C15.535 5.91504 15.511 6.03599 15.4642 6.14884C15.4174 6.2617 15.3487 6.36424 15.2621 6.45059C15.1755 6.53694 15.0727 6.60541 14.9595 6.65207C14.8464 6.69874 14.7251 6.72268 14.6026 6.72252Z" fill="white"/>
</svg>
