<svg width="25" height="29" viewBox="0 0 25 29" fill="none" xmlns="http://www.w3.org/2000/svg">
<path fill-rule="evenodd" clip-rule="evenodd" d="M12.5939 2.21605C10.316 2.21605 8.1313 3.12096 6.52054 4.73172C4.90978 6.34248 4.00487 8.52714 4.00487 10.8051H2.09619C2.09619 8.02093 3.2022 5.35079 5.1709 3.38209C7.13961 1.41338 9.80974 0.307373 12.5939 0.307373C15.3781 0.307373 18.0482 1.41338 20.0169 3.38209C21.9856 5.35079 23.0916 8.02093 23.0916 10.8051H21.183C21.183 8.52714 20.278 6.34248 18.6673 4.73172C17.0565 3.12096 14.8719 2.21605 12.5939 2.21605Z" fill="#323334"/>
<path fill-rule="evenodd" clip-rule="evenodd" d="M0.397599 10.2078C0.487042 10.0963 0.600364 10.0064 0.729201 9.94464C0.858037 9.88286 0.999101 9.8508 1.14198 9.85083H24.0461C24.1889 9.85089 24.3299 9.88299 24.4586 9.94477C24.5874 10.0066 24.7006 10.0964 24.79 10.2078C24.8794 10.3192 24.9426 10.4492 24.9751 10.5882C25.0075 10.7273 25.0084 10.8719 24.9775 11.0113L21.4923 26.6949C21.3511 27.3308 20.9974 27.8996 20.4893 28.3074C19.9813 28.7151 19.3494 28.9374 18.698 28.9376H6.49009C5.83867 28.9374 5.20678 28.7151 4.69875 28.3074C4.19072 27.8996 3.83693 27.3308 3.69579 26.6949L0.210548 11.0113C0.179925 10.8722 0.18083 10.728 0.213197 10.5893C0.245564 10.4506 0.308571 10.3209 0.397599 10.2097V10.2078ZM2.33109 11.7595L5.55866 26.2807C5.60558 26.4928 5.72346 26.6826 5.89281 26.8186C6.06217 26.9546 6.27287 27.0288 6.49009 27.0289H18.698C18.9152 27.0288 19.1259 26.9546 19.2953 26.8186C19.4646 26.6826 19.5825 26.4928 19.6294 26.2807L22.8551 11.7595H2.333H2.33109Z" fill="#323334"/>
</svg>
